<svg width="67" height="40" viewBox="0 0 67 40" fill="none" xmlns="http://www.w3.org/2000/svg">
<path d="M4.55803 39.2523C4.82979 39.7331 5.43985 39.9025 5.92065 39.6308L13.7557 35.2023C14.2365 34.9305 14.406 34.3205 14.1342 33.8397C13.8625 33.3589 13.2524 33.1894 12.7716 33.4612L5.8071 37.3976L1.87067 30.4331C1.59891 29.9523 0.988847 29.7828 0.508047 30.0546C0.0272477 30.3263 -0.142216 30.9364 0.129538 31.4172L4.55803 39.2523ZM5.42859 38.7602L6.39211 39.0279C8.47053 31.5457 13.9569 20.736 23.6235 12.7309C33.2517 4.75757 47.0673 -0.471691 65.9541 3.19305L66.1446 2.21136L66.3351 1.22967C46.8399 -2.55312 32.4206 2.84901 22.3479 11.1905C12.3135 19.5002 6.63285 30.6887 4.46508 38.4926L5.42859 38.7602Z" fill="black"/>
</svg>
